# xmcd
#
# Track frame offsets: 
#        150
#        24312
#        43145
#        60405
#        85444
#        105581
#        126148
#        142835
#        165665
#        187081
#        208887
#
# Disc length: 3068 seconds
#
# Revision: 1
# Processed by: cddbd v1.5.1PL2 Copyright (c) Steve Scherf et al.
# Submitted via: ExactAudioCopy v0.95a4
#
DISCID=960bfa0b
DTITLE=Victor Yanqui and Orquesta Fantasia - Merengue (Sizzling Tropical
DTITLE=Rhythms) [Avalon]
DYEAR=2004
DGENRE=Merengue
TTITLE0=Santo Cachon
TTITLE1=Juraria
TTITLE2=En El Frente
TTITLE3=El Tigueron
TTITLE4=Las Mujeres Lo Bailen Bien
TTITLE5=La Negra
TTITLE6=Miami
TTITLE7=Merengue Bomba
TTITLE8=Loco Amor
TTITLE9=Equivocada
TTITLE10=Barron Y Cuenta Nueva
EXTD=
EXTT0=
EXTT1=
EXTT2=
EXTT3=
EXTT4=
EXTT5=
EXTT6=
EXTT7=
EXTT8=
EXTT9=
EXTT10=
PLAYORDER=
